<svg width="48" height="48" viewBox="0 0 48 48" fill="none" xmlns="http://www.w3.org/2000/svg">
<path d="M25.1457 37.504C22.7097 37.504 20.6097 37.07 18.8457 36.202C17.1097 35.306 15.7657 34.06 14.8137 32.464C13.8897 30.84 13.4277 28.936 13.4277 26.752C13.4277 24.624 13.8757 22.762 14.7717 21.166C15.6677 19.542 16.9137 18.282 18.5097 17.386C20.1337 16.462 21.9677 16 24.0117 16C25.4957 16 26.8397 16.252 28.0437 16.756C29.2477 17.232 30.2837 17.932 31.1517 18.856C32.0197 19.752 32.6777 20.858 33.1257 22.174C33.5737 23.462 33.7977 24.904 33.7977 26.5C33.7977 27.032 33.6297 27.438 33.2937 27.718C32.9577 27.97 32.4677 28.096 31.8237 28.096H18.6357V24.82H29.2197L28.5477 25.408C28.5477 24.26 28.3797 23.308 28.0437 22.552C27.7077 21.768 27.2177 21.18 26.5737 20.788C25.9577 20.396 25.1877 20.2 24.2637 20.2C23.2277 20.2 22.3457 20.438 21.6177 20.914C20.8897 21.39 20.3297 22.076 19.9377 22.972C19.5457 23.868 19.3497 24.946 19.3497 26.206V26.542C19.3497 28.67 19.8397 30.238 20.8197 31.246C21.8277 32.254 23.3117 32.758 25.2717 32.758C25.9437 32.758 26.7137 32.674 27.5817 32.506C28.4497 32.338 29.2617 32.072 30.0177 31.708C30.6617 31.4 31.2357 31.302 31.7397 31.414C32.2437 31.498 32.6357 31.722 32.9157 32.086C33.1957 32.45 33.3497 32.87 33.3777 33.346C33.4337 33.822 33.3357 34.298 33.0837 34.774C32.8317 35.222 32.4117 35.6 31.8237 35.908C30.8717 36.44 29.7937 36.832 28.5897 37.084C27.4137 37.364 26.2657 37.504 25.1457 37.504Z" fill="#FEBD2F"/>
</svg>
