<svg width="48" height="48" viewBox="0 0 48 48" fill="none" xmlns="http://www.w3.org/2000/svg">
<path d="M26.8695 38.45C24.3775 38.45 22.5155 37.764 21.2835 36.392C20.0515 34.992 19.4355 32.92 19.4355 30.176V11.234C19.4355 10.17 19.7015 9.372 20.2335 8.84C20.7935 8.28 21.5915 8 22.6275 8C23.6355 8 24.4055 8.28 24.9375 8.84C25.4975 9.372 25.7775 10.17 25.7775 11.234V29.924C25.7775 31.072 26.0155 31.926 26.4915 32.486C26.9955 33.018 27.6535 33.284 28.4655 33.284C28.6895 33.284 28.8995 33.27 29.0955 33.242C29.2915 33.214 29.5015 33.2 29.7255 33.2C30.1735 33.144 30.4815 33.284 30.6495 33.62C30.8455 33.928 30.9435 34.558 30.9435 35.51C30.9435 36.35 30.7755 36.994 30.4395 37.442C30.1035 37.862 29.5855 38.142 28.8855 38.282C28.6055 38.31 28.2835 38.338 27.9195 38.366C27.5555 38.422 27.2055 38.45 26.8695 38.45Z" fill="#F14232"/>
</svg>
