<svg width="48" height="48" viewBox="0 0 48 48" fill="none" xmlns="http://www.w3.org/2000/svg">
<path d="M24.3477 37.954C22.1357 37.954 20.2037 37.52 18.5517 36.652C16.9277 35.784 15.6677 34.538 14.7717 32.914C13.8757 31.29 13.4277 29.372 13.4277 27.16C13.4277 25.508 13.6797 24.024 14.1837 22.708C14.6877 21.392 15.4157 20.272 16.3677 19.348C17.3477 18.396 18.5097 17.682 19.8537 17.206C21.1977 16.702 22.6957 16.45 24.3477 16.45C26.5597 16.45 28.4777 16.884 30.1017 17.752C31.7537 18.62 33.0277 19.852 33.9237 21.448C34.8477 23.044 35.3097 24.948 35.3097 27.16C35.3097 28.84 35.0437 30.338 34.5117 31.654C34.0077 32.97 33.2797 34.104 32.3277 35.056C31.3757 36.008 30.2137 36.736 28.8417 37.24C27.4977 37.716 25.9997 37.954 24.3477 37.954ZM24.3477 33.208C25.2717 33.208 26.0697 32.984 26.7417 32.536C27.4137 32.088 27.9457 31.43 28.3377 30.562C28.7297 29.666 28.9257 28.532 28.9257 27.16C28.9257 25.116 28.5057 23.618 27.6657 22.666C26.8257 21.686 25.7197 21.196 24.3477 21.196C23.4517 21.196 22.6537 21.406 21.9537 21.826C21.2817 22.246 20.7497 22.904 20.3577 23.8C19.9937 24.668 19.8117 25.788 19.8117 27.16C19.8117 29.204 20.2317 30.73 21.0717 31.738C21.9117 32.718 23.0037 33.208 24.3477 33.208ZM28.5057 12.922C27.5537 12.922 26.8117 12.67 26.2797 12.166C25.7757 11.634 25.5237 10.892 25.5237 9.94C25.5237 8.988 25.7757 8.26 26.2797 7.756C26.8117 7.252 27.5537 7 28.5057 7C29.4577 7 30.1857 7.252 30.6897 7.756C31.1937 8.26 31.4457 8.988 31.4457 9.94C31.4457 10.892 31.1937 11.634 30.6897 12.166C30.1857 12.67 29.4577 12.922 28.5057 12.922ZM20.2317 12.922C19.2797 12.922 18.5377 12.67 18.0057 12.166C17.5017 11.634 17.2497 10.892 17.2497 9.94C17.2497 8.988 17.5017 8.26 18.0057 7.756C18.5377 7.252 19.2797 7 20.2317 7C21.1837 7 21.9117 7.252 22.4157 7.756C22.9197 8.26 23.1717 8.988 23.1717 9.94C23.1717 10.892 22.9197 11.634 22.4157 12.166C21.9117 12.67 21.1837 12.922 20.2317 12.922Z" fill="#77A62E"/>
</svg>
