<svg width="48" height="48" viewBox="0 0 48 48" fill="none" xmlns="http://www.w3.org/2000/svg">
<path d="M16.9197 38.336C16.0797 38.336 15.3657 38.14 14.7777 37.748C14.1897 37.328 13.7137 36.67 13.3497 35.774L7.42767 21.116C7.11967 20.332 7.02167 19.646 7.13367 19.058C7.24567 18.442 7.53967 17.952 8.01567 17.588C8.51967 17.196 9.20567 17 10.0737 17C10.8017 17 11.4037 17.182 11.8797 17.546C12.3557 17.882 12.7617 18.54 13.0977 19.52L17.7177 31.826H16.7517L21.5397 18.974C21.7637 18.302 22.0857 17.812 22.5057 17.504C22.9537 17.168 23.5277 17 24.2277 17C24.9277 17 25.4877 17.168 25.9077 17.504C26.3557 17.84 26.7057 18.33 26.9577 18.974L31.6617 31.826H30.8637L35.4417 19.352C35.7777 18.456 36.2117 17.84 36.7437 17.504C37.2757 17.168 37.8497 17 38.4657 17C39.2497 17 39.8517 17.196 40.2717 17.588C40.7197 17.98 40.9717 18.484 41.0277 19.1C41.1117 19.716 40.9997 20.388 40.6917 21.116L34.8117 35.774C34.4757 36.642 33.9997 37.286 33.3837 37.706C32.7957 38.126 32.0817 38.336 31.2417 38.336C30.4297 38.336 29.7157 38.126 29.0997 37.706C28.5117 37.286 28.0357 36.642 27.6717 35.774L22.6317 22.67H25.3617L20.4477 35.732C20.1117 36.6 19.6497 37.258 19.0617 37.706C18.4737 38.126 17.7597 38.336 16.9197 38.336Z" fill="#6089C8"/>
</svg>
