<svg width="151" height="151" viewBox="0 0 151 151" fill="none" xmlns="http://www.w3.org/2000/svg">
<g filter="url(#filter0_i_1_2)">
<rect width="151" height="151" rx="75.5" fill="#19C472"/>
<path d="M73.8779 50.0739C75.3354 48.642 77.6986 48.642 79.1561 50.0739L102.907 73.4076C104.364 74.8395 104.364 77.1605 102.907 78.5924L79.1561 101.926C77.6986 103.358 75.3354 103.358 73.8779 101.926C72.4204 100.494 72.4204 98.1726 73.8779 96.7407L91.2578 79.6665L50.7322 79.6665C48.6709 79.6665 47 78.025 47 76C47 73.975 48.6709 72.3335 50.7322 72.3335L91.2578 72.3335L73.8779 55.2593C72.4204 53.8274 72.4204 51.5058 73.8779 50.0739Z" fill="white"/>
</g>
<defs>
<filter id="filter0_i_1_2" x="0" y="0" width="151" height="151" filterUnits="userSpaceOnUse" color-interpolation-filters="sRGB">
<feFlood flood-opacity="0" result="BackgroundImageFix"/>
<feBlend mode="normal" in="SourceGraphic" in2="BackgroundImageFix" result="shape"/>
<feColorMatrix in="SourceAlpha" type="matrix" values="0 0 0 0 0 0 0 0 0 0 0 0 0 0 0 0 0 0 127 0" result="hardAlpha"/>
<feOffset dy="-8"/>
<feComposite in2="hardAlpha" operator="arithmetic" k2="-1" k3="1"/>
<feColorMatrix type="matrix" values="0 0 0 0 0.0941176 0 0 0 0 0.643137 0 0 0 0 0.376471 0 0 0 1 0"/>
<feBlend mode="normal" in2="shape" result="effect1_innerShadow_1_2"/>
</filter>
</defs>
</svg>
